<?xml version="1.0" standalone="no"?>
<!DOCTYPE svg PUBLIC "-//W3C//DTD SVG 1.1//EN" "http://www.w3.org/Graphics/SVG/1.1/DTD/svg11.dtd" >
<svg xmlns="http://www.w3.org/2000/svg">
<metadata>Generated by IcoMoon</metadata>
<defs>
<font id="icomoon" horiz-adv-x="1024">
<font-face units-per-em="1024" ascent="960" descent="-64" />
<missing-glyph horiz-adv-x="1024" />
<glyph unicode="&#x20;" horiz-adv-x="512" d="" />
<glyph unicode="&#xe900;" glyph-name="hospital-o" horiz-adv-x="805" d="M219.429 201.143v-36.571c0-9.714-8.571-18.286-18.286-18.286h-36.571c-9.714 0-18.286 8.571-18.286 18.286v36.571c0 9.714 8.571 18.286 18.286 18.286h36.571c9.714 0 18.286-8.571 18.286-18.286zM219.429 347.428v-36.571c0-9.714-8.571-18.286-18.286-18.286h-36.571c-9.714 0-18.286 8.571-18.286 18.286v36.571c0 9.714 8.571 18.286 18.286 18.286h36.571c9.714 0 18.286-8.571 18.286-18.286zM365.714 347.428v-36.571c0-9.714-8.571-18.286-18.286-18.286h-36.571c-9.714 0-18.286 8.571-18.286 18.286v36.571c0 9.714 8.571 18.286 18.286 18.286h36.571c9.714 0 18.286-8.571 18.286-18.286zM219.429 493.714v-36.571c0-9.714-8.571-18.286-18.286-18.286h-36.571c-9.714 0-18.286 8.571-18.286 18.286v36.571c0 9.714 8.571 18.286 18.286 18.286h36.571c9.714 0 18.286-8.571 18.286-18.286zM658.286 201.143v-36.571c0-9.714-8.571-18.286-18.286-18.286h-36.571c-9.714 0-18.286 8.571-18.286 18.286v36.571c0 9.714 8.571 18.286 18.286 18.286h36.571c9.714 0 18.286-8.571 18.286-18.286zM512 347.428v-36.571c0-9.714-8.571-18.286-18.286-18.286h-36.571c-9.714 0-18.286 8.571-18.286 18.286v36.571c0 9.714 8.571 18.286 18.286 18.286h36.571c9.714 0 18.286-8.571 18.286-18.286zM365.714 493.714v-36.571c0-9.714-8.571-18.286-18.286-18.286h-36.571c-9.714 0-18.286 8.571-18.286 18.286v36.571c0 9.714 8.571 18.286 18.286 18.286h36.571c9.714 0 18.286-8.571 18.286-18.286zM658.286 347.428v-36.571c0-9.714-8.571-18.286-18.286-18.286h-36.571c-9.714 0-18.286 8.571-18.286 18.286v36.571c0 9.714 8.571 18.286 18.286 18.286h36.571c9.714 0 18.286-8.571 18.286-18.286zM512 493.714v-36.571c0-9.714-8.571-18.286-18.286-18.286h-36.571c-9.714 0-18.286 8.571-18.286 18.286v36.571c0 9.714 8.571 18.286 18.286 18.286h36.571c9.714 0 18.286-8.571 18.286-18.286zM658.286 493.714v-36.571c0-9.714-8.571-18.286-18.286-18.286h-36.571c-9.714 0-18.286 8.571-18.286 18.286v36.571c0 9.714 8.571 18.286 18.286 18.286h36.571c9.714 0 18.286-8.571 18.286-18.286zM512 0h219.429v658.286h-146.286v-18.286c0-30.286-24.571-54.857-54.857-54.857h-256c-30.286 0-54.857 24.571-54.857 54.857v18.286h-146.286v-658.286h219.429v128c0 9.714 8.571 18.286 18.286 18.286h182.857c9.714 0 18.286-8.571 18.286-18.286v-128zM512 676.571v182.857c0 9.714-8.571 18.286-18.286 18.286h-36.571c-9.714 0-18.286-8.571-18.286-18.286v-54.857h-73.143v54.857c0 9.714-8.571 18.286-18.286 18.286h-36.571c-9.714 0-18.286-8.571-18.286-18.286v-182.857c0-9.714 8.571-18.286 18.286-18.286h36.571c9.714 0 18.286 8.571 18.286 18.286v54.857h73.143v-54.857c0-9.714 8.571-18.286 18.286-18.286h36.571c9.714 0 18.286 8.571 18.286 18.286zM804.571 694.857v-731.429c0-20-16.571-36.571-36.571-36.571h-731.429c-20 0-36.571 16.571-36.571 36.571v731.429c0 20 16.571 36.571 36.571 36.571h182.857v164.571c0 30.286 24.571 54.857 54.857 54.857h256c30.286 0 54.857-24.571 54.857-54.857v-164.571h182.857c20 0 36.571-16.571 36.571-36.571z" />
<glyph unicode="&#xe901;" glyph-name="bomb" d="M326.286 614.286c-7.429 18.857-28.571 27.429-47.429 20-82.286-33.143-148.571-99.429-181.714-181.714-7.429-18.857 1.143-40 20-47.429 4.571-1.714 9.143-2.857 13.714-2.857 14.857 0 28 8.571 34.286 22.857 25.714 64 77.143 115.429 141.143 141.143 18.857 8 28 29.143 20 48zM864.571 817.714l26.286-26.286-139.429-138.857 38.857-38.857c14.286-14.286 14.286-37.714 0-52l-36.571-36.571c32-57.714 50.857-124.571 50.857-196 0-222.286-180-402.286-402.286-402.286s-402.286 180-402.286 402.286 180 402.286 402.286 402.286c71.429 0 138.286-18.857 196-50.857l36.571 36.571c14.286 14.286 37.714 14.286 52 0l38.857-38.857zM869.143 849.714c-3.429-3.429-8-5.714-12.571-5.714-5.143 0-9.714 2.286-13.143 5.714l-52 51.429c-6.857 7.429-6.857 18.857 0 26.286 7.429 6.857 18.857 6.857 26.286 0l51.429-52c7.429-6.857 7.429-18.857 0-25.714zM1000.571 718.286c-4-3.429-8.571-5.143-13.143-5.143s-9.143 1.714-13.143 5.143l-51.429 52c-7.429 6.857-7.429 18.857 0 25.714 6.857 7.429 18.857 7.429 25.714 0l52-51.429c6.857-7.429 6.857-18.857 0-26.286zM1024 822.857c0-10.286-8-18.286-18.286-18.286h-54.857c-10.286 0-18.286 8-18.286 18.286s8 18.286 18.286 18.286h54.857c10.286 0 18.286-8 18.286-18.286zM914.286 932.571v-54.857c0-10.286-8-18.286-18.286-18.286s-18.286 8-18.286 18.286v54.857c0 10.286 8 18.286 18.286 18.286s18.286-8 18.286-18.286zM1000.571 901.143l-52-51.429c-3.429-3.429-8-5.714-12.571-5.714-5.143 0-9.714 2.286-13.143 5.714-7.429 6.857-7.429 18.857 0 25.714l51.429 52c7.429 6.857 18.857 6.857 26.286 0 6.857-7.429 6.857-18.857 0-26.286z" />
<glyph unicode="&#xe902;" glyph-name="search" d="M621.668 306.332c-44.476-31.692-98.895-50.332-157.668-50.332-150.221 0-272 121.779-272 272s121.779 272 272 272c150.221 0 272-121.779 272-272 0-58.773-18.641-113.192-50.332-157.668l178.714-178.714c17.606-17.606 17.46-45.778-0.006-63.244l-0.75-0.75c-17.421-17.421-45.781-17.469-63.244-0.006l-178.714 178.714zM464 320c114.875 0 208 93.125 208 208s-93.125 208-208 208c-114.875 0-208-93.125-208-208s93.125-208 208-208v0z" />
<glyph unicode="&#xe903;" glyph-name="directions_railway" d="M768 512.667v212h-512v-212h512zM512 212.667c46 0 86 40 86 86s-40 86-86 86-86-40-86-86 40-86 86-86zM170 276.667v448c0 150 154 172 342 172s342-22 342-172v-448c0-82-68-148-150-148l64-64v-22h-512v22l64 64c-82 0-150 66-150 148z" />
<glyph unicode="&#xe904;" glyph-name="remove_circle_outline" d="M512 84.667c188 0 342 154 342 342s-154 342-342 342-342-154-342-342 154-342 342-342zM512 852.667c236 0 426-190 426-426s-190-426-426-426-426 190-426 426 190 426 426 426zM298 468.667h428v-84h-428v84z" />
<glyph unicode="&#xe905;" glyph-name="fiber_manual_record" d="M170 426.667c0 188 154 342 342 342s342-154 342-342-154-342-342-342-342 154-342 342z" />
<glyph unicode="&#xe906;" glyph-name="control_point" d="M512 84.667c188 0 342 154 342 342s-154 342-342 342-342-154-342-342 154-342 342-342zM512 852.667c236 0 426-190 426-426s-190-426-426-426-426 190-426 426 190 426 426 426zM554 640.667v-172h172v-84h-172v-172h-84v172h-172v84h172v172h84z" />
<glyph unicode="&#xe907;" glyph-name="dehaze" d="M86 704.667h852v-86h-852v86zM86 490.667h852v-86h-852v86zM86 276.667h852v-84h-852v84z" />
<glyph unicode="&#xe908;" glyph-name="administrative" d="M731.725 713.056v-525.535h-128.464v116.786h-58.393v-116.786h-128.464v525.535h315.321zM696.689 678.020h-58.393v-58.393h58.393v58.393zM603.261 678.020h-58.393v-58.393h58.393v58.393zM509.832 678.020h-58.393v-58.393h58.393v58.393zM404.725 607.949v-420.428h-128.464v420.428h128.464zM696.689 584.592h-58.393v-58.393h58.393v58.393zM603.261 584.592h-58.393v-58.393h58.393v58.393zM509.832 584.592h-58.393v-58.393h58.393v58.393zM369.69 572.913h-58.393v-58.393h58.393v58.393zM696.689 491.163h-58.393v-58.393h58.393v58.393zM603.261 491.163h-58.393v-58.393h58.393v58.393zM509.832 491.163h-58.393v-58.393h58.393v58.393zM369.69 479.485h-58.393v-58.393h58.393v58.393zM696.689 397.735h-58.393v-58.393h58.393v58.393zM603.261 397.735h-58.393v-58.393h58.393v58.393zM509.832 397.735h-58.393v-58.393h58.393v58.393zM369.69 386.056h-58.393v-58.393h58.393v58.393zM369.69 292.628h-58.393v-58.393h58.393v58.393z" />
<glyph unicode="&#xe909;" glyph-name="army" d="M507.168 769.92c-120.381 0-217.953-99.728-217.953-222.756v-39.418c144.987-13.423 290.921-13.408 435.906 0v39.379c0 123.028-97.572 222.756-217.953 222.756v0.040zM506.269 670.573l19.112-41.175 44.309-3.553-33.12-30.965 10.291-43.384-39.572 22.060-37.98-23.204 8.699 44.528-33.773 29.043 44.922 5.475 17.111 41.175zM285.499 487.074c-0.308-0.706-0.635-1.403-0.981-2.091l-23.849-46.772c-6.945-13.582-6.094-29.842 2.231-42.624s22.851-20.131 38.077-19.264l151.060 8.577c36.709 2.088 73.517 1.746 110.181-1.025l148.079-11.233c15.834-1.204 31.101 6.166 40.010 19.315s10.098 30.064 3.115 44.33l-23.931 48.936c-0.273 0.607-0.532 1.221-0.776 1.84h-0.209c-147.334-13.755-295.677-13.749-443.012 0l0.005 0.010zM339.769 342.034l37.771-108.651c19.087-54.891 70.897-91.714 128.997-91.714h0.854c58.1 0 109.911 36.823 128.997 91.714l37.771 108.651h-19.277l-35.708-102.673c-16.562-47.631-61.368-79.476-111.783-79.476h-0.854c-50.415 0-95.221 31.845-111.783 79.476l-35.708 102.673h-19.277z" />
<glyph unicode="&#xe90a;" glyph-name="cemetery" d="M231.462 318.397c-14.457 0-26.662 12.048-26.662 26.911v160.943c0 74.446 59.961 134.282 133.926 134.282 65.556 0 120.303-47.419 131.733-109.98-74.987-13.638-131.733-79.277-131.733-158.525v-53.631h-107.264zM365.511 372.028v-160.943c0-14.863 12.205-26.911 26.662-26.911h214.528c14.725 0 26.662 12.235 26.662 26.911v160.943c0 74.162-60.111 134.282-133.926 134.282-73.965 0-133.926-59.836-133.926-134.282zM526.222 530.921v55.864c0 74.446 59.961 134.282 133.926 134.282 73.815 0 133.926-60.12 133.926-134.282v-160.943c0-14.676-11.937-26.911-26.662-26.911h-109.499c-11.325 67.41-64.474 120.658-131.69 131.99v0z" />
<glyph unicode="&#xe90b;" glyph-name="hand" horiz-adv-x="2082" d="M467.968 694.654c6.651 2.956 18.105 8.868 34.363 17.736 47.295 25.865 99.578 48.773 156.849 68.725s145.395 37.688 264.371 53.207c118.977 15.519 271.946 23.279 458.909 23.279 43.6 0 123.78-3.695 240.539-11.085s187.517-12.008 212.273-13.856c24.756-1.847 49.142-9.606 73.16-23.278s43.046-29.005 57.087-46.002c14.040-16.996 21.060-33.254 21.060-48.772 0-28.082-8.498-52.468-25.495-73.16s-40.828-36.21-71.497-46.556c-30.668-10.346-67.801-15.888-111.402-16.627l-220.586-6.651-4.435-15.518c11.824-28.082 17.736-50.621 17.736-67.618 0-20.691-9.422-44.893-28.266-72.605s-33.254-42.676-43.231-44.893c-9.976-2.217-26.234-7.575-48.773-16.073s-36.025-16.442-40.459-23.832c7.39-29.559 11.085-49.881 11.085-60.966 0-21.43-5.912-40.829-17.736-58.195s-36.949-33.439-75.376-48.219c-21.431-8.129-33.624-15.149-36.579-21.061 0-42.122-12.748-70.388-38.243-84.798s-53.392-21.615-83.69-21.615c-28.082 0-69.834 5.912-125.257 17.736-55.424 12.563-96.807 18.845-124.149 18.845-25.865 0-67.987-4.434-126.367-13.302-62.813-9.607-108.63-14.411-137.451-14.411-70.204 0-146.688 23.647-229.455 70.942l-17.736-16.627c-19.952-43.6-84.983-65.4-195.092-65.4-35.471 0-57.271 16.812-65.399 50.435s-12.193 114.358-12.193 242.202c0 31.037 2.956 73.529 8.868 127.475 3.695 30.298 7.020 72.051 9.976 125.257 5.173 89.417 14.411 146.134 27.712 170.151s48.403 36.026 105.305 36.026c56.163 0 92.742-4.434 109.739-13.302s31.038-25.494 42.122-49.881c5.172-10.346 14.41-19.583 27.712-27.712zM1117.534 755.62c49.512-20.692 101.98-48.034 157.404-82.028 39.905-23.647 68.356-35.471 85.352-35.471 22.169 0 49.881 3.695 83.136 11.085 15.519 2.956 25.864 4.434 31.037 4.434 0.739 0 12.378-1.848 34.917-5.543s56.717-5.542 102.534-5.542c36.949 0 62.998 2.217 78.147 6.651s24.571 6.65 28.267 6.65c3.695 0 11.454-0.739 23.278-2.217 21.43-2.956 37.319-4.434 47.665-4.434 39.166 0 71.681 6.281 97.546 18.844s38.796 27.342 38.796 44.339c0 25.865-20.692 43.046-62.075 51.544s-68.356 12.748-80.918 12.748l-43.231-6.651c-8.867 0-24.386 2.956-46.556 8.868-16.258 4.434-25.126 6.651-26.603 6.651h-41.013l-147.427-6.651-86.461 4.434c-37.688 1.478-88.309 2.217-151.861 2.217-53.946 0-96.068-5.912-126.367-17.736l4.434-12.193zM1243.9 617.061c-56.902 43.6-119.161 77.593-186.778 101.979s-126.921 36.58-177.911 36.58c-58.379 0-135.972-15.334-232.779-46.002s-157.219-70.203-181.236-118.606c-24.017-48.404-36.025-102.534-36.025-162.392 0-102.719 0.739-169.597 2.217-200.634s23.647-57.826 66.508-80.364c42.861-22.539 95.699-33.809 158.512-33.809 17.736 0 101.61 8.868 251.624 26.603l2.217 6.651c0 9.607-14.041 26.973-42.122 52.098-19.953 17.736-29.929 26.973-29.929 27.712l-25.494 84.243c-13.302-0.739-37.319-2.586-72.051-5.542-50.251-5.172-88.308-7.759-114.172-7.759-50.99 0-76.485 14.41-76.485 43.23 0 13.302 8.129 19.953 24.387 19.953 9.607 0 28.081-1.478 55.423-4.434 33.993-2.956 58.75-4.434 74.268-4.434 82.027 0 123.041 9.607 123.041 28.82 0 3.695-2.402 9.238-7.205 16.627s-8.683 11.084-11.639 11.084c-24.386 0-55.054-1.847-92.003-5.542s-67.617-5.542-92.004-5.542c-13.302 0-33.624 7.020-60.966 21.061s-41.013 30.298-41.013 48.773c0 6.651 2.217 15.149 6.651 25.495 22.908-1.478 58.010-8.129 105.305-19.953 57.641-14.041 101.98-21.061 133.017-21.061 63.553 0 95.329 14.41 95.329 43.231 0 19.213-25.495 50.251-76.485 93.112l4.433 19.953c11.085 4.434 20.692 6.65 28.821 6.65 18.474 0 33.624-5.912 45.447-17.736 30.299-29.559 51.914-49.512 64.846-59.857s26.418-15.519 40.459-15.519c17.736 0 26.603 8.498 26.603 25.495 0 14.78-9.607 33.624-28.821 56.532 11.824 11.824 20.692 17.736 26.603 17.736 14.041 0 26.234-5.173 36.58-15.518 44.339-45.817 108.63-75.376 192.874-88.678l11.085 18.844 8.868 80.919zM292.828 696.871v11.084c-9.607 11.085-18.474 16.627-26.603 16.627s-17.55-2.771-28.266-8.314c-10.715-5.542-17.736-12.748-21.061-21.615s-4.988-24.387-4.988-46.556c0-12.563-4.064-45.078-12.193-97.546-16.257-113.064-24.386-199.895-24.386-260.491 0-2.956 0.739-9.976 2.217-21.061s2.217-18.105 2.217-21.061l11.084-9.976 25.495 16.627v76.485l8.868 14.41 13.302-2.217 2.217-16.627-4.433-110.848 2.217-23.278 13.302-19.953c14.78 8.868 22.17 20.692 22.17 35.471 0 5.173-0.739 14.411-2.217 27.712-3.695 31.037-5.543 59.118-5.543 84.243 0 96.807 6.651 199.156 19.953 307.048 4.434 35.471 6.65 58.749 6.65 69.834zM377.072 211.359v229.455c0 5.912 2.217 20.322 6.651 43.231 8.868 48.034 13.302 85.722 13.302 113.064 0 12.563-7.39 26.973-22.17 43.231h-15.519c-14.78-14.78-24.202-26.603-28.266-35.471s-8.313-35.471-12.748-79.81l-18.844-179.573v-145.21l16.627-12.193 17.736 21.061v38.796l13.301 2.217 21.061-47.665 8.868 8.868zM1396.869 521.732l-4.434 16.627c-36.21 30.298-58.38 45.447-66.508 45.447h-17.736c-18.474-16.997-27.712-30.668-27.712-41.013 0-11.824 6.651-23.093 19.953-33.809s26.973-16.072 41.013-16.072c23.647 0 42.122 9.607 55.423 28.82zM1185.151 404.234c25.864-11.824 59.118-17.736 99.762-17.736 66.508 0 121.008 10.9 163.5 32.7s63.737 47.849 63.737 78.147c0 8.868-4.064 23.833-12.193 44.894s-23.647 33.439-46.556 37.134c8.868-22.909 13.302-40.644 13.302-53.207 0-21.43-14.964-41.013-44.893-58.749s-65.585-26.603-106.968-26.603c-28.082 0-65.031 5.912-110.848 17.736l-18.844-54.315zM1115.317 430.837c16.257 11.084 24.386 21.060 24.386 29.928 0 11.085-5.912 21.431-17.736 31.037s-18.844 14.41-21.061 14.41h-17.736c-21.43-12.563-32.146-24.017-32.146-34.362 0-9.607 14.41-23.278 43.231-41.013h21.061zM1033.289 390.931c-19.953 26.604-40.275 39.906-60.966 39.906-11.085 0-20.692-3.695-28.821-11.085s-12.193-16.258-12.193-26.603c0-14.78 5.912-28.451 17.736-41.013s25.495-18.844 41.014-18.844c28.82 0 43.23 19.213 43.23 57.64zM1098.69 361.003c-7.39-7.39-13.301-15.888-17.736-25.495l-19.952-42.122c0-11.824 21.8-26.973 65.399-45.447s91.265-27.712 142.993-27.712c25.126 0 45.817 4.434 62.075 13.302s24.387 20.322 24.387 34.363c0 39.166-25.125 58.749-75.376 58.749l-49.881 2.217c-19.953 0-39.166 2.956-57.641 8.868l-74.268 23.279zM953.479 250.156c-1.478 22.169-8.313 37.503-20.506 46.001s-22.724 12.748-31.591 12.748h-15.519c-8.868-18.474-13.302-28.451-13.302-29.929v-4.434c11.085-19.213 23.648-32.884 37.689-41.013l21.060-2.217c4.434 0 10.715 4.804 18.844 14.411 1.478 2.217 2.587 3.695 3.326 4.434zM1221.731 127.115l-2.217 19.953c-18.474 15.519-38.057 24.756-58.749 27.712-29.559 4.434-65.4 19.583-107.522 45.447-17.736 10.346-28.82 15.519-33.255 15.519-7.39 0-16.442-6.651-27.158-19.953s-16.073-22.539-16.073-27.712c0-13.302 20.692-31.777 62.075-55.424s80.549-35.471 117.499-35.471c19.214 0 32.516 3.325 39.905 9.976l25.495 19.953z" />
<glyph unicode="&#xe90c;" glyph-name="monument" d="M771.111 576.932l-267.2 127.068-267.2-127.068v-21.97h534.4zM275.307 523.492h58.784v-255.324h-58.784v255.324zM406.532 523.492h58.784v-255.324h-58.784v255.324zM673.732 523.492h58.784v-255.324h-58.784v255.324zM540.132 523.492h58.784v-255.324h-58.784v255.324zM221.867 236.697h564.089v-44.533h-564.089v44.533z" />
<glyph unicode="&#xe90d;" glyph-name="map-marker" horiz-adv-x="585" d="M438.857 585.143c0 80.571-65.714 146.286-146.286 146.286s-146.286-65.714-146.286-146.286 65.714-146.286 146.286-146.286 146.286 65.714 146.286 146.286zM585.143 585.143c0-34.857-4-70.857-18.857-102.286l-208-442.286c-12-25.143-38.286-40.571-65.714-40.571s-53.714 15.429-65.143 40.571l-208.571 442.286c-14.857 31.429-18.857 67.429-18.857 102.286 0 161.714 130.857 292.571 292.571 292.571s292.571-130.857 292.571-292.571z" />
<glyph unicode="&#xe90e;" glyph-name="hand-reverse" horiz-adv-x="2082" d="M1682.876 722.364c11.093 24.371 25.122 41.028 42.121 49.869s53.589 13.312 109.739 13.312c56.9 0 91.989-12.015 105.335-36.045 13.278-24.030 22.528-80.725 27.682-170.155 3.004-53.214 6.315-94.959 10.001-125.235 5.939-53.965 8.875-96.461 8.875-127.488 0-127.829-4.062-208.555-12.186-242.21s-29.935-50.449-65.399-50.449c-110.114 0-175.138 21.811-195.072 65.399l-17.749 16.623c-82.807-47.309-159.266-70.963-229.478-70.963-28.843 0-74.684 4.847-137.455 14.438-58.368 8.875-100.489 13.312-126.362 13.312-27.341 0-68.71-6.281-124.143-18.876-55.433-11.81-97.178-17.749-125.269-17.749-30.31 0-58.197 7.236-83.695 21.641-25.463 14.438-38.229 42.701-38.229 84.787-2.97 5.905-15.155 12.937-36.557 21.060-38.434 14.78-63.556 30.822-75.401 48.23-11.81 17.34-17.749 36.727-17.749 58.163 0 11.093 3.686 31.437 11.093 60.962-4.437 7.407-17.92 15.326-40.482 23.825s-38.81 13.858-48.777 16.111c-10.001 2.185-24.405 17.169-43.247 44.851-18.842 27.716-28.262 51.917-28.262 72.602 0 16.998 5.905 39.526 17.749 67.618l-4.437 15.531-220.604 6.656c-43.588 0.819-80.725 6.349-111.377 16.725-30.652 10.342-54.477 25.839-71.475 46.558-16.998 20.651-25.532 45.056-25.532 73.148 0 15.531 7.066 31.778 21.060 48.777 14.063 16.964 33.075 32.324 57.105 45.978s48.401 21.436 73.182 23.313c24.747 1.843 95.539 6.451 212.275 13.858 116.736 7.373 196.915 11.059 240.503 11.059 186.982 0 339.934-7.782 458.923-23.279 118.955-15.531 207.053-33.246 264.329-53.214 57.31-19.934 109.568-42.871 156.877-68.745 16.282-8.875 27.716-14.78 34.372-17.749 13.312 8.158 22.528 17.408 27.716 27.75zM1010.039 767.829c-30.31 11.81-72.431 17.749-126.362 17.749-63.522 0-114.176-0.717-151.859-2.219l-86.46-4.437-147.388 6.656h-41.028c-1.468 0-10.342-2.219-26.59-6.656-22.153-5.905-37.683-8.875-46.558-8.875l-43.247 6.622c-12.595 0-39.526-4.267-80.93-12.766s-62.054-25.668-62.054-51.541c0-16.998 12.937-31.778 38.81-44.339s58.368-18.842 97.519-18.842c10.342 0 26.249 1.468 47.65 4.437 11.81 1.468 19.593 2.219 23.279 2.219s13.141-2.219 28.262-6.656 41.199-6.622 78.131-6.622c45.841 0 80.009 1.843 102.537 5.564 22.562 3.686 34.202 5.53 34.918 5.53 5.188 0 15.531-1.468 31.027-4.437 33.28-7.373 60.962-11.093 83.183-11.093 16.964 0 45.397 11.844 85.333 35.499 55.398 33.997 107.861 61.338 157.389 82.022l4.437 12.186zM888.115 536.132l11.093-18.842c84.241 13.312 148.548 42.871 192.853 88.678 10.342 10.342 22.528 15.531 36.557 15.531 5.905 0 14.78-5.905 26.624-17.749-19.217-22.903-28.843-41.745-28.843-56.525 0-16.998 8.875-25.498 26.624-25.498 14.029 0 27.511 5.154 40.448 15.531s34.577 30.31 64.853 59.836c11.81 11.844 26.965 17.749 45.466 17.749 8.090 0 17.749-2.219 28.809-6.656l4.437-19.968c-50.961-42.837-76.493-73.899-76.493-93.116 0-28.843 31.812-43.247 95.334-43.247 31.061 0 75.401 7.031 133.018 21.060 47.309 11.81 82.364 18.466 105.301 19.934 4.437-10.342 6.656-18.842 6.656-25.498 0-18.5-13.653-34.748-41.028-48.742-27.341-14.063-47.65-21.060-60.962-21.060-24.405 0-55.057 1.843-91.989 5.53-36.932 3.652-67.584 5.53-91.989 5.53-2.97 0-6.827-3.686-11.639-11.059-4.847-7.407-7.236-12.937-7.236-16.657 0-19.183 41.028-28.809 123.051-28.809 15.531 0 40.277 1.468 74.274 4.437 27.341 2.97 45.807 4.437 55.398 4.437 16.282 0 24.405-6.656 24.405-19.934 0-28.843-25.463-43.281-76.459-43.281-25.873 0-63.932 2.594-114.21 7.817-34.748 2.935-58.743 4.813-72.021 5.53l-25.498-84.275c0-0.717-9.967-9.967-29.935-27.716-28.058-25.122-42.121-42.496-42.121-52.087l2.219-6.656c150.050-17.749 233.916-26.59 251.631-26.59 62.805 0 115.678 11.264 158.515 33.792 42.871 22.562 65.024 49.323 66.492 80.384 1.468 30.993 2.219 97.894 2.219 200.602 0 59.87-12.049 114.005-36.045 162.406s-84.446 87.927-181.248 118.613-174.387 46.012-232.755 46.012c-50.995 0-110.285-12.186-177.937-36.591-67.584-24.371-129.877-58.368-186.778-101.956l8.909-80.896zM1836.919 627.029c13.346-107.895 20.002-210.227 20.002-307.029 0-25.122-1.877-53.214-5.564-84.275-1.502-13.278-2.219-22.528-2.219-27.716 0-14.78 7.407-26.59 22.187-35.465l13.278 19.968 2.219 23.279-4.437 110.831 2.185 16.623 13.346 2.185 8.875-14.404v-76.459l25.463-16.623 11.093 9.967c0 2.97 0.717 10.001 2.219 21.060 1.468 11.059 2.185 18.091 2.185 21.060 0 60.587-8.124 147.422-24.405 260.471-8.124 52.463-12.186 84.992-12.186 97.553 0 22.153-1.638 37.683-4.983 46.558-3.311 8.875-10.377 16.077-21.060 21.606-10.684 5.564-20.139 8.329-28.228 8.329-8.124 0-16.998-5.564-26.624-16.623v-11.093c0.034-11.059 2.287-34.338 6.656-69.803zM1754.931 202.513l21.060 47.65 13.278-2.185v-38.81l17.783-21.060 16.623 12.186v145.203l-18.876 179.61c-4.403 44.339-8.67 70.929-12.732 79.804s-13.483 20.685-28.262 35.465h-15.531c-14.78-16.247-22.153-30.652-22.153-43.247 0-27.341 4.437-65.024 13.312-113.050 4.471-22.903 6.656-37.308 6.656-43.247v-229.444l8.841-8.875zM781.653 492.919c14.063 0 27.716 5.359 41.028 16.077s19.968 21.982 19.968 33.826c0 10.342-9.25 24.030-27.716 40.994h-17.749c-8.124 0-30.31-15.121-66.492-45.431l-4.437-16.623c13.312-19.251 31.778-28.843 55.398-28.843zM919.142 458.547c-45.807-11.81-82.773-17.749-110.865-17.749-41.37 0-77.005 8.875-106.94 26.59s-44.885 37.308-44.885 58.743c0 12.561 4.437 30.31 13.312 53.214-22.938-3.686-38.434-16.077-46.524-37.137-8.124-21.060-12.186-36.011-12.186-44.885 0-30.31 21.231-56.354 63.727-78.165 42.462-21.811 97.007-32.7 163.465-32.7 40.653 0 73.933 5.905 99.806 17.749l-18.91 54.34zM1028.881 430.831c28.843 17.749 43.247 31.403 43.247 41.028 0 10.342-10.684 21.811-32.119 34.372h-17.749c-2.219 0-9.25-4.813-21.060-14.404-11.844-9.591-17.749-19.934-17.749-31.027 0-8.875 8.124-18.842 24.371-29.935h21.060zM1133.056 333.312c15.531 0 29.184 6.281 40.994 18.842 11.878 12.561 17.749 26.249 17.749 40.994 0 10.377-4.028 19.217-12.151 26.59-8.124 7.407-17.749 11.093-28.843 11.093-20.651 0-40.994-13.312-60.928-39.902 0-38.434 14.404-57.617 43.179-57.617zM950.204 337.749c-18.5-5.939-37.717-8.875-57.651-8.875l-49.869-2.219c-50.278 0-75.401-19.558-75.401-58.743 0-14.029 8.124-25.498 24.405-34.372s36.932-13.312 62.054-13.312c51.746 0 99.396 9.25 142.985 27.716s65.399 33.621 65.399 45.466l-19.934 42.086c-4.471 9.626-10.377 18.091-17.749 25.498l-74.24-23.245zM1172.992 245.726c8.090-9.591 14.404-14.404 18.807-14.404l21.060 2.185c14.063 8.124 26.59 21.811 37.683 40.994v4.437c0 1.502-4.437 11.469-13.312 29.935h-15.531c-8.875 0-19.388-4.233-31.573-12.766-12.186-8.465-19.046-23.791-20.514-46.012 0.785-0.683 1.877-2.15 3.379-4.369zM926.891 107.179c7.373-6.622 20.685-9.967 39.902-9.967 36.932 0 76.117 11.81 117.487 35.465 41.37 23.62 62.089 42.121 62.089 55.398 0 5.188-5.393 14.438-16.111 27.716s-19.763 19.934-27.17 19.934c-4.403 0-15.497-5.154-33.28-15.497-42.086-25.873-77.926-41.028-107.486-45.431-20.685-3.004-40.277-12.186-58.778-27.716l-2.15-19.934 25.498-19.968z" />
<glyph unicode="&#xe90f;" glyph-name="ic_zoom_out_black_24px" d="M661.333 362.667h-33.707l-11.947 11.52c41.813 48.64 66.987 111.787 66.987 180.48 0 153.173-124.16 277.333-277.333 277.333s-277.333-124.16-277.333-277.333 124.16-277.333 277.333-277.333c68.693 0 131.84 25.173 180.48 66.987l11.52-11.947v-33.707l213.333-212.907 63.573 63.573-212.907 213.333zM405.333 362.667c-106.24 0-192 85.76-192 192s85.76 192 192 192 192-85.76 192-192-85.76-192-192-192zM298.667 576h213.333v-42.667h-213.333z" />
<glyph unicode="&#xe910;" glyph-name="ic_zoom_in_black_24px" d="M661.333 362.667h-33.707l-11.947 11.52c41.813 48.64 66.987 111.787 66.987 180.48 0 153.173-124.16 277.333-277.333 277.333s-277.333-124.16-277.333-277.333 124.16-277.333 277.333-277.333c68.693 0 131.84 25.173 180.48 66.987l11.52-11.947v-33.707l213.333-212.907 63.573 63.573-212.907 213.333zM405.333 362.667c-106.24 0-192 85.76-192 192s85.76 192 192 192 192-85.76 192-192-85.76-192-192-192zM512 533.333h-85.333v-85.333h-42.667v85.333h-85.333v42.667h85.333v85.333h42.667v-85.333h85.333v-42.667z" />
<glyph unicode="&#xe911;" glyph-name="ic_keyboard_arrow_right_black_24px" d="M366.507 262.827l195.413 195.84-195.413 195.84 60.16 60.16 256-256-256-256z" />
<glyph unicode="&#xe912;" glyph-name="ic_keyboard_arrow_left_black_24px" d="M657.493 273.493l-195.413 195.84 195.413 195.84-60.16 60.16-256-256 256-256z" />
<glyph unicode="&#xe913;" glyph-name="ic_file_download_black_24px" d="M810.667 576h-170.667v256h-256v-256h-170.667l298.667-298.667 298.667 298.667zM213.333 192v-85.333h597.333v85.333h-597.333z" />
<glyph unicode="&#xe914;" glyph-name="ic_keyboard_arrow_down_black_24px" d="M316.16 625.493l195.84-195.413 195.84 195.413 60.16-60.16-256-256-256 256z" />
<glyph unicode="&#xe915;" glyph-name="ic_keyboard_arrow_up_black_24px" d="M316.16 302.507l195.84 195.413 195.84-195.413 60.16 60.16-256 256-256-256z" />
<glyph unicode="&#xe916;" glyph-name="ic_add_black_24px" d="M810.667 405.333h-256v-256h-85.333v256h-256v85.333h256v256h85.333v-256h256v-85.333z" />
<glyph unicode="&#xe917;" glyph-name="ic_remove_black_24px" d="M810.667 405.333h-597.333v85.333h597.333v-85.333z" />
<glyph unicode="&#xea0a;" glyph-name="plus" d="M992 576h-352v352c0 17.672-14.328 32-32 32h-192c-17.672 0-32-14.328-32-32v-352h-352c-17.672 0-32-14.328-32-32v-192c0-17.672 14.328-32 32-32h352v-352c0-17.672 14.328-32 32-32h192c17.672 0 32 14.328 32 32v352h352c17.672 0 32 14.328 32 32v192c0 17.672-14.328 32-32 32z" />
<glyph unicode="&#xea0b;" glyph-name="minus" d="M0 544v-192c0-17.672 14.328-32 32-32h960c17.672 0 32 14.328 32 32v192c0 17.672-14.328 32-32 32h-960c-17.672 0-32-14.328-32-32z" />
<glyph unicode="&#xea0f;" glyph-name="cross" d="M1014.662 137.34c-0.004 0.004-0.008 0.008-0.012 0.010l-310.644 310.65 310.644 310.65c0.004 0.004 0.008 0.006 0.012 0.010 3.344 3.346 5.762 7.254 7.312 11.416 4.246 11.376 1.824 24.682-7.324 33.83l-146.746 146.746c-9.148 9.146-22.45 11.566-33.828 7.32-4.16-1.55-8.070-3.968-11.418-7.31 0-0.004-0.004-0.006-0.008-0.010l-310.648-310.652-310.648 310.65c-0.004 0.004-0.006 0.006-0.010 0.010-3.346 3.342-7.254 5.76-11.414 7.31-11.38 4.248-24.682 1.826-33.83-7.32l-146.748-146.748c-9.148-9.148-11.568-22.452-7.322-33.828 1.552-4.16 3.97-8.072 7.312-11.416 0.004-0.002 0.006-0.006 0.010-0.010l310.65-310.648-310.65-310.652c-0.002-0.004-0.006-0.006-0.008-0.010-3.342-3.346-5.76-7.254-7.314-11.414-4.248-11.376-1.826-24.682 7.322-33.83l146.748-146.746c9.15-9.148 22.452-11.568 33.83-7.322 4.16 1.552 8.070 3.97 11.416 7.312 0.002 0.004 0.006 0.006 0.010 0.010l310.648 310.65 310.648-310.65c0.004-0.002 0.008-0.006 0.012-0.008 3.348-3.344 7.254-5.762 11.414-7.314 11.378-4.246 24.684-1.826 33.828 7.322l146.746 146.748c9.148 9.148 11.57 22.454 7.324 33.83-1.552 4.16-3.97 8.068-7.314 11.414z" />
<glyph unicode="&#xea10;" glyph-name="checkmark" d="M864 832l-480-480-224 224-160-160 384-384 640 640z" />
<glyph unicode="&#xea3a;" glyph-name="arrow-up2" d="M877.254 557.254l-320 320c-24.992 24.994-65.514 24.994-90.508 0l-320-320c-24.994-24.994-24.994-65.516 0-90.51 24.994-24.996 65.516-24.996 90.51 0l210.744 210.746v-613.49c0-35.346 28.654-64 64-64s64 28.654 64 64v613.49l210.746-210.746c12.496-12.496 28.876-18.744 45.254-18.744s32.758 6.248 45.254 18.746c24.994 24.994 24.994 65.514 0 90.508z" />
<glyph unicode="&#xea3e;" glyph-name="arrow-down2" d="M877.254 338.746l-320-320c-24.992-24.994-65.514-24.994-90.508 0l-320 320c-24.994 24.994-24.994 65.516 0 90.51 24.994 24.996 65.516 24.996 90.51 0l210.744-210.746v613.49c0 35.346 28.654 64 64 64s64-28.654 64-64v-613.49l210.746 210.746c12.496 12.496 28.876 18.744 45.254 18.744s32.758-6.248 45.254-18.746c24.994-24.994 24.994-65.514 0-90.508z" />
<glyph unicode="&#xea50;" glyph-name="ctrl" d="M736.014 512c-8.908 0-17.77 3.698-24.096 10.928l-199.918 228.478-199.918-228.478c-11.636-13.3-31.856-14.65-45.154-3.010-13.3 11.638-14.648 31.854-3.010 45.154l224 256c6.076 6.944 14.854 10.928 24.082 10.928s18.006-3.984 24.082-10.928l224-256c11.638-13.3 10.292-33.516-3.010-45.154-6.070-5.312-13.582-7.918-21.058-7.918z" />
</font>
</defs>
</svg>
