
<svg width="84px" height="85px" viewBox="0 0 84 85" version="1.1" xmlns="http://www.w3.org/2000/svg" xmlns:xlink="http://www.w3.org/1999/xlink">
    <!-- Generator: Sketch 48.2 (47327) - http://www.bohemiancoding.com/sketch -->
    <desc>Created with Sketch.</desc>
    <defs></defs>
    <g id="Collection" stroke="none" stroke-width="1" fill="none" fill-rule="evenodd" opacity="0.5">
        <g id="Collection-default" transform="translate(-431.000000, -587.000000)" fill="#FFFFFF">
            <g id="Group" transform="translate(431.444849, 587.835899)">
                <path d="M1.89852628,53.1587358 C0.850539773,53.1587358 0,52.308196 0,51.2602095 L0,32.2749467 C0,31.2269602 0.850539773,30.3764205 1.89852628,30.3764205 C2.94651278,30.3764205 3.79705256,31.2269602 3.79705256,32.2749467 L3.79705256,51.2602095 C3.79705256,52.308196 2.94651278,53.1587358 1.89852628,53.1587358" id="Fill-366"></path>
                <path d="M13.2896839,68.346946 C12.2416974,68.346946 11.3911577,67.4964062 11.3911577,66.4484197 L11.3911577,17.0867365 C11.3911577,16.03875 12.2416974,15.1882102 13.2896839,15.1882102 C14.3376705,15.1882102 15.1882102,16.03875 15.1882102,17.0867365 L15.1882102,66.4484197 C15.1882102,67.4964062 14.3376705,68.346946 13.2896839,68.346946" id="Fill-367"></path>
                <path d="M24.6808416,83.5351562 C23.6328551,83.5351562 22.7823153,82.6846165 22.7823153,81.63663 L22.7823153,1.89852628 C22.7823153,0.850539773 23.6328551,0 24.6808416,0 C25.7288281,0 26.5793679,0.850539773 26.5793679,1.89852628 L26.5793679,81.63663 C26.5793679,82.6846165 25.7288281,83.5351562 24.6808416,83.5351562" id="Fill-368"></path>
                <path d="M36.0719993,79.7381037 C35.0240128,79.7381037 34.173473,78.8875639 34.173473,77.8395774 L34.173473,5.69557884 C34.173473,4.64759233 35.0240128,3.79705256 36.0719993,3.79705256 C37.1199858,3.79705256 37.9705256,4.64759233 37.9705256,5.69557884 L37.9705256,77.8395774 C37.9705256,78.8875639 37.1199858,79.7381037 36.0719993,79.7381037" id="Fill-369"></path>
                <path d="M47.463157,64.5498935 C46.4151705,64.5498935 45.5646307,63.6993537 45.5646307,62.6513672 L45.5646307,20.8837891 C45.5646307,19.8358026 46.4151705,18.9852628 47.463157,18.9852628 C48.5111435,18.9852628 49.3616832,19.8358026 49.3616832,20.8837891 L49.3616832,62.6513672 C49.3616832,63.6993537 48.5111435,64.5498935 47.463157,64.5498935" id="Fill-370"></path>
                <path d="M58.8543146,79.7381037 C57.8063281,79.7381037 56.9557884,78.8875639 56.9557884,77.8395774 L56.9557884,5.69557884 C56.9557884,4.64759233 57.8063281,3.79705256 58.8543146,3.79705256 C59.9023011,3.79705256 60.7528409,4.64759233 60.7528409,5.69557884 L60.7528409,77.8395774 C60.7528409,78.8875639 59.9023011,79.7381037 58.8543146,79.7381037" id="Fill-371"></path>
                <path d="M70.2454723,64.5498935 C69.1974858,64.5498935 68.346946,63.6993537 68.346946,62.6513672 L68.346946,20.8837891 C68.346946,19.8358026 69.1974858,18.9852628 70.2454723,18.9852628 C71.2934588,18.9852628 72.1439986,19.8358026 72.1439986,20.8837891 L72.1439986,62.6513672 C72.1439986,63.6993537 71.2934588,64.5498935 70.2454723,64.5498935" id="Fill-372"></path>
                <path d="M81.63663,53.1587358 C80.5886435,53.1587358 79.7381037,52.308196 79.7381037,51.2602095 L79.7381037,32.2749467 C79.7381037,31.2269602 80.5886435,30.3764205 81.63663,30.3764205 C82.6846165,30.3764205 83.5351562,31.2269602 83.5351562,32.2749467 L83.5351562,51.2602095 C83.5351562,52.308196 82.6846165,53.1587358 81.63663,53.1587358" id="Fill-373"></path>
            </g>
        </g>
    </g>
</svg>
