
<svg width="73px" height="71px" viewBox="0 0 73 71" version="1.1" xmlns="http://www.w3.org/2000/svg" xmlns:xlink="http://www.w3.org/1999/xlink">
    <!-- Generator: Sketch 48.2 (47327) - http://www.bohemiancoding.com/sketch -->
    <desc>Created with Sketch.</desc>
    <defs></defs>
    <g id="Collection" stroke="none" stroke-width="1" fill="none" fill-rule="evenodd" opacity="0.732563406">
        <g id="Collection-default" transform="translate(-937.000000, -578.000000)" fill="#FFFFFF">
            <g id="Group-2" transform="translate(937.341086, 578.898076)">
                <path d="M10.5544279,33.171059 C6.39598329,33.171059 3.01555082,36.5484759 3.01555082,40.7099361 L3.01555082,58.803241 C3.01555082,62.9647011 6.39598329,66.342118 10.5544279,66.342118 L43.7254869,66.342118 C47.8839315,66.342118 51.2643639,62.9647011 51.2643639,58.803241 L51.2643639,55.7876902 C51.2643639,55.244891 51.5719501,54.7322474 52.0604693,54.4608478 C52.5489886,54.1894482 53.1430521,54.2196037 53.6074469,54.5211588 L69.3576688,65.0454312 L69.3576688,34.4677459 L53.6074469,44.9920182 C53.1430521,45.2935733 52.5489886,45.3237288 52.0604693,45.0523292 C51.5719501,44.7809297 51.2643639,44.268286 51.2643639,43.7254869 L51.2643639,40.7099361 C51.2643639,36.5484759 47.8839315,33.171059 43.7254869,33.171059 L10.5544279,33.171059 L10.5544279,33.171059 Z M70.8654442,69.3576688 C70.5729358,69.3576688 70.2834429,69.2672023 70.0301367,69.1164248 L54.2799147,58.5921524 L54.2799147,58.803241 C54.2799147,64.6232541 49.5455,69.3576688 43.7254869,69.3576688 L10.5544279,69.3576688 C4.73441479,69.3576688 0,64.6232541 0,58.803241 L0,40.7099361 C0,34.889923 4.73441479,30.1555082 10.5544279,30.1555082 L43.7254869,30.1555082 C49.5455,30.1555082 54.2799147,34.889923 54.2799147,40.7099361 L54.2799147,40.9210246 L70.0301367,30.3967523 C70.4945315,30.0951972 71.088595,30.0650417 71.5771142,30.3364412 C72.0656335,30.6078408 72.3732197,31.1204845 72.3732197,31.6632836 L72.3732197,67.8498934 C72.3732197,68.3926926 72.0656335,68.9053362 71.5771142,69.1767358 C71.3539635,69.2973578 71.1097039,69.3576688 70.8654442,69.3576688 L70.8654442,69.3576688 Z" id="Fill-590"></path>
                <path d="M40.7099361,3.01555082 C34.889923,3.01555082 30.1555082,7.7499656 30.1555082,13.5699787 C30.1555082,19.3899918 34.889923,24.1244066 40.7099361,24.1244066 C46.5299491,24.1244066 51.2643639,19.3899918 51.2643639,13.5699787 C51.2643639,7.7499656 46.5299491,3.01555082 40.7099361,3.01555082 L40.7099361,3.01555082 Z M40.7099361,27.1399574 C33.2283545,27.1399574 27.1399574,21.0485447 27.1399574,13.5699787 C27.1399574,6.09141265 33.2283545,0 40.7099361,0 C48.1915176,0 54.2799147,6.09141265 54.2799147,13.5699787 C54.2799147,21.0485447 48.1915176,27.1399574 40.7099361,27.1399574 L40.7099361,27.1399574 Z" id="Fill-591"></path>
                <path d="M10.5544279,9.04665246 C6.39598329,9.04665246 3.01555082,12.4240694 3.01555082,16.5855295 C3.01555082,20.7469896 6.39598329,24.1244066 10.5544279,24.1244066 C14.7128724,24.1244066 18.0933049,20.7469896 18.0933049,16.5855295 C18.0933049,12.4240694 14.7128724,9.04665246 10.5544279,9.04665246 L10.5544279,9.04665246 Z M10.5544279,27.1399574 C4.73441479,27.1399574 0,22.4055426 0,16.5855295 C0,10.7655164 4.73441479,6.03110164 10.5544279,6.03110164 C16.3744409,6.03110164 21.1088557,10.7655164 21.1088557,16.5855295 C21.1088557,22.4055426 16.3744409,27.1399574 10.5544279,27.1399574 L10.5544279,27.1399574 Z" id="Fill-592"></path>
            </g>
        </g>
    </g>
</svg>
